<svg width="151" height="151" viewBox="0 0 151 151" fill="none" xmlns="http://www.w3.org/2000/svg">
<circle cx="75.4623" cy="75.5543" r="75" fill="#F7F3FF"/>
<path fill-rule="evenodd" clip-rule="evenodd" d="M57.7722 34.6167C67.8669 29.3472 83.4568 29.5216 93.1883 35.1395L128.6 55.582L129.063 55.8562C133.775 58.7179 136.131 62.3984 136.132 66.0788V85.0276C136.132 88.7088 133.776 92.3899 129.063 95.2522L128.6 95.5265L93.1883 115.97L92.7131 116.237C82.9531 121.593 67.6967 121.676 57.7649 116.488L57.2957 116.237L56.8205 115.97L21.409 95.5265C16.3881 92.6278 13.8774 88.8288 13.8769 85.0296V66.0808C13.8767 63.7801 14.7972 61.4795 16.6381 59.3787C17.7426 58.1183 19.1784 56.9295 20.9457 55.8562L21.409 55.582L56.8205 35.1395L57.2957 34.8718L57.7722 34.6167Z" fill="#5452D5"/>
<path fill-rule="evenodd" clip-rule="evenodd" d="M57.2957 34.8718C67.3705 29.343 83.3024 29.4324 93.1883 35.1395L128.6 55.582L129.063 55.8562C138.488 61.5802 138.488 70.5798 129.063 76.3037L128.6 76.578L93.1884 97.0211L92.7132 97.2881C82.7982 102.729 67.2107 102.729 57.2957 97.2881L56.8206 97.0211L21.4091 76.578C11.5231 70.8708 11.3686 61.6724 20.9457 55.8562L21.409 55.582L56.8205 35.1395L57.2957 34.8718ZM87.4466 38.4549C80.5752 34.488 69.4344 34.4881 62.563 38.4549L27.1515 58.8973C20.2801 62.8642 20.2801 69.2961 27.1515 73.263L62.563 93.7061C69.4344 97.6728 80.5753 97.6729 87.4466 93.7061L122.857 73.263C129.729 69.2961 129.729 62.8642 122.857 58.8973L87.4466 38.4549Z" fill="#5452D5"/>
<path d="M29.9899 78.9376C17.6897 71.8367 17.6897 60.3238 29.9899 53.2229L52.733 40.0933C65.0332 32.9924 84.9758 32.9924 97.276 40.0933L120.019 53.2229C132.319 60.3238 132.319 71.8367 120.019 78.9376L97.276 92.0672C84.9758 99.1681 65.0332 99.1681 52.733 92.0672L29.9899 78.9376Z" fill="#F7F3FF"/>
<path d="M29.2118 77.6485C18.8537 71.6688 18.8537 61.9738 29.2118 55.9941L62.0912 37.0128C70.5071 32.1543 84.152 32.1543 92.5679 37.0128L99.9084 41.2505L33.0357 79.8561L29.2118 77.6485Z" fill="#C7BCFE"/>
<path d="M122.857 73.263L128.6 76.578L93.1884 97.0211L87.4466 93.7061L122.857 73.263ZM122.857 58.8973L87.4466 38.4549C80.5752 34.488 69.4344 34.4881 62.563 38.4549L27.1515 58.8973C20.2801 62.8642 20.2801 69.2961 27.1515 73.263L62.563 93.7061C69.4344 97.6728 80.5753 97.6729 87.4466 93.7061L93.1884 97.0211L92.7132 97.2881C82.7982 102.729 67.2107 102.729 57.2957 97.2881L56.8206 97.0211L21.4091 76.578C11.5231 70.8708 11.3686 61.6724 20.9457 55.8562L21.409 55.582L56.8205 35.1395L57.2957 34.8718C67.3705 29.343 83.3024 29.4324 93.1883 35.1395L128.6 55.582L129.063 55.8562C138.488 61.5802 138.488 70.5798 129.063 76.3037L128.6 76.578L122.857 73.263C129.729 69.2961 129.729 62.8642 122.857 58.8973Z" fill="#5452D5"/>
<path d="M75.5264 88.229L56.0824 77.004L61.494 73.8799L80.938 85.1049L75.5264 88.229ZM61.494 88.2368L56.0824 85.1127L75.5264 73.8876L80.938 77.0117L61.494 88.2368Z" fill="#5452D5"/>
<path d="M89.5356 66.6994L84.1509 63.5908L103.367 52.4975L108.751 55.6061L89.5356 66.6994ZM98.7742 72.0328L93.3895 68.9242L112.605 57.8309L117.99 60.9395L98.7742 72.0328Z" fill="#5452D5"/>
<path d="M45.6908 45.8423L110.541 83.2802L104.798 86.5952L39.9484 49.1574L45.6908 45.8423Z" fill="#5452D5"/>
</svg>
