<svg width="30" height="30" viewBox="0 0 30 30" fill="none" xmlns="http://www.w3.org/2000/svg">
<circle cx="14.7181" cy="14.9294" r="14.4206" fill="#5452D5"/>
<path d="M13.1917 15.5363L13.1824 8.17881C13.1817 7.67028 13.5924 7.25964 14.0982 7.26299L15.3208 7.26454C15.8294 7.26519 16.241 7.67687 16.239 8.18269L16.251 13.3979L21.4662 13.4045C21.9747 13.4051 22.3864 13.8168 22.3843 14.3226L22.3886 15.548C22.3893 16.0565 21.9786 16.4672 21.4728 16.4638L14.1153 16.4545C13.604 16.4565 13.1924 16.0449 13.1917 15.5363Z" fill="#F7F3FF"/>
<path d="M16.2445 14.3225L16.2538 21.68C16.2545 22.1885 15.8439 22.5992 15.338 22.5958L14.1154 22.5943C13.6068 22.5936 13.1952 22.1819 13.1972 21.6761L13.1852 16.4609L7.97002 16.4543C7.46149 16.4537 7.04981 16.042 7.05187 15.5362L7.04761 14.3108C7.04696 13.8023 7.4576 13.3916 7.96343 13.395L15.3209 13.4043C15.8322 13.4023 16.2438 13.814 16.2445 14.3225Z" fill="#F7F3FF"/>
</svg>
